<svg width="1000" height="962" viewBox="0 0 1000 962" fill="none" xmlns="http://www.w3.org/2000/svg">
<path fill-rule="evenodd" clip-rule="evenodd" d="M641.764 302.413C607.937 283.088 566.261 283.088 532.434 302.413L332.153 416.834C298.327 436.159 277.489 471.873 277.489 510.524V739.365C277.489 778.015 298.327 813.73 332.153 833.055L532.434 947.476C566.261 966.801 607.937 966.801 641.764 947.476L842.045 833.055C875.871 813.73 896.709 778.015 896.709 739.365V510.524C896.709 471.873 875.871 436.159 842.045 416.834L741.904 359.623L641.764 302.413Z" fill="#243665"/>
<path d="M857.325 3.64037C865.782 -1.21346 876.201 -1.21346 884.658 3.64038L986.333 61.9966C994.79 66.8504 1000 75.8207 1000 85.5283V202.241C1000 211.948 994.79 220.919 986.333 225.773L884.658 284.129C876.201 288.983 865.782 288.983 857.325 284.129L755.649 225.773C747.192 220.919 741.983 211.948 741.983 202.241V85.5283C741.983 75.8207 747.192 66.8504 755.649 61.9966L857.325 3.64037Z" fill="#243665"/>
<path d="M93.186 511.404C100.018 507.487 108.436 507.487 115.269 511.404L197.413 558.499C204.246 562.416 208.455 569.655 208.455 577.489V671.678C208.455 679.513 204.246 686.752 197.413 690.669L115.269 737.763C108.436 741.68 100.018 741.68 93.186 737.763L11.0414 690.669C4.20896 686.752 -1.72122e-07 679.513 0 671.678L2.06938e-06 577.489C2.2415e-06 569.655 4.20897 562.416 11.0414 558.499L93.186 511.404Z" fill="#243665"/>
<path d="M384.108 202.256C388.169 199.92 393.173 199.92 397.234 202.256L446.061 230.337C450.122 232.673 452.624 236.989 452.624 241.661V297.823C452.624 302.495 450.122 306.811 446.061 309.147L397.234 337.228C393.173 339.564 388.169 339.564 384.108 337.228L335.28 309.147C331.219 306.811 328.717 302.495 328.717 297.823V241.661C328.717 236.989 331.219 232.673 335.28 230.337L384.108 202.256Z" fill="#243665"/>
</svg>
