<svg width="335" height="323" viewBox="0 0 335 323" fill="none" xmlns="http://www.w3.org/2000/svg">
<path fill-rule="evenodd" clip-rule="evenodd" d="M214.893 101.262C203.567 94.7915 189.611 94.7915 178.285 101.262L111.221 139.576C99.8941 146.047 92.9165 158.006 92.9165 170.948V247.575C92.9165 260.517 99.8941 272.476 111.221 278.947L178.285 317.26C189.611 323.731 203.567 323.731 214.893 317.26L281.957 278.947C293.284 272.476 300.261 260.517 300.261 247.575V170.948C300.261 158.006 293.284 146.047 281.957 139.576L214.893 101.262ZM137.24 188.069H126.336V250.92H137.24V188.069ZM137.24 164.308H126.336V176.336H137.24V164.308ZM164.53 164.308H153.804V250.92H164.53V164.308ZM191.283 187.774H180.677V250.92H191.402V217.431C191.402 209.294 193.051 203.674 196.348 200.568C199.685 197.463 203.379 195.91 207.431 195.91C211.88 195.91 214.918 197.384 216.547 200.332C217.58 202.298 218.096 205.423 218.096 209.707V250.92H229V214.188C229 207.663 230.51 203.005 233.529 200.215C236.587 197.424 240.222 196.028 244.433 196.028C247.491 196.028 250.073 196.815 252.179 198.387C254.324 199.959 255.396 202.848 255.396 207.054V250.92H266.538V208.882C266.538 203.3 265.704 198.858 264.036 195.557C260.937 189.425 255.098 186.359 246.518 186.359C242.506 186.359 238.891 187.184 235.674 188.835C232.456 190.447 229.656 192.943 227.272 196.323C225.842 193.572 224.253 191.488 222.505 190.073C219.407 187.597 215.316 186.359 210.231 186.359C205.742 186.359 201.73 187.558 198.195 189.955C196.129 191.371 193.825 193.631 191.283 196.736V187.774Z" fill="white"/>
<path d="M287.074 1.21897C289.905 -0.406323 293.394 -0.406323 296.226 1.21897L330.272 20.7594C333.104 22.3847 334.848 25.3884 334.848 28.639V67.7199C334.848 70.9705 333.104 73.9742 330.272 75.5995L296.226 95.14C293.394 96.7653 289.905 96.7653 287.074 95.14L253.028 75.5995C250.196 73.9742 248.451 70.9705 248.451 67.7199V28.639C248.451 25.3884 250.196 22.3847 253.028 20.7594L287.074 1.21897Z" fill="white"/>
<path d="M31.2032 171.243C33.491 169.931 36.3097 169.931 38.5975 171.243L66.1035 187.012C68.3913 188.324 69.8007 190.748 69.8007 193.371V224.91C69.8007 227.533 68.3913 229.958 66.1035 231.269L38.5975 247.039C36.3097 248.35 33.491 248.35 31.2031 247.039L3.6972 231.269C1.40936 229.957 -5.76348e-08 227.533 0 224.91L6.92927e-07 193.371C7.50562e-07 190.748 1.40936 188.324 3.6972 187.012L31.2032 171.243Z" fill="white"/>
<path d="M128.618 67.7252C129.978 66.9431 131.653 66.9431 133.013 67.7252L149.363 77.1281C150.723 77.9102 151.56 79.3556 151.56 80.9198V99.7257C151.56 101.29 150.723 102.735 149.363 103.517L133.013 112.92C131.653 113.702 129.978 113.702 128.618 112.92L112.268 103.517C110.908 102.735 110.07 101.29 110.07 99.7257V80.9198C110.07 79.3556 110.908 77.9102 112.268 77.1281L128.618 67.7252Z" fill="white"/>
</svg>
